<?xml version="1.0" encoding="UTF-8"?>
<!DOCTYPE svg PUBLIC "-//W3C//DTD SVG 1.1//EN" "http://www.w3.org/Graphics/SVG/1.1/DTD/svg11.dtd">
<!-- Creator: CorelDRAW X6 -->
<svg xmlns="http://www.w3.org/2000/svg" xml:space="preserve" width="155.647mm" height="68.959mm" version="1.1" shape-rendering="geometricPrecision" text-rendering="geometricPrecision" image-rendering="optimizeQuality" fill-rule="evenodd" clip-rule="evenodd"
viewBox="0 0 15565 6896"
 xmlns:xlink="http://www.w3.org/1999/xlink">
 <g id="Capa_x0020_1">
  <metadata id="CorelCorpID_0Corel-Layer"/>
  <g id="_253902680">
   <path fill="#9B6B13" d="M3329 4374c706,1209 -1450,3007 -2834,2138 -291,-183 -467,-539 -227,-947 441,-749 2396,-1204 3060,-1190zm-1244 -4027c-332,105 -714,546 -840,878 -465,1225 1364,2115 1974,2973 -908,120 -2938,493 -3188,1501 -470,1896 4557,1610 3753,-1380 174,-6 964,-17 1042,-70l-223 -17c142,-42 320,-21 428,-52l-379 -13c-47,-49 -20,18 -18,-65l-938 44c-560,-1022 -2259,-1747 -2142,-2638 61,-465 611,-749 749,-880 43,-66 -2,0 49,-47 0,0 29,-25 30,-27 2,-9 11,-9 16,-14l-73 -60c-2,-7 -8,-7 -12,-10 -9,-116 28,-8 38,-101 1,-7 6,-9 5,-14 -56,-50 -19,16 -42,-70 -73,23 -189,84 -229,59z"/>
   <path fill="#C8A936" d="M5648 2952c-87,156 -147,385 -203,570 -38,127 -116,498 -158,579l-653 2c-1,82 -29,15 18,65l379 13c-108,30 -286,10 -428,52l223 17 435 15c-76,596 -309,1607 42,2097 418,584 1140,-423 1283,-764 -46,-53 8,-108 2,-142 -3,-2 -10,0 -11,0 -62,-3 -31,22 -75,-13 -208,250 -427,821 -825,800 -219,-328 -132,-970 -69,-1400 97,-659 221,-858 309,-1297 -68,-20 -41,41 -40,-82 1,-97 21,-73 61,-154 32,-65 -7,-67 -28,-93 -18,-23 -30,-33 -38,-71 -17,-81 19,-78 11,-209 -141,-23 87,66 -40,14 -84,-35 2,-72 -60,-183 -2,45 -22,94 -47,139 -72,128 -55,87 -88,44z"/>
   <path fill="#936B24" d="M10351 2686l86 -84 43 144c37,-403 63,-498 226,-822 87,-172 316,-461 508,-557 304,113 916,927 805,1438 73,-92 23,-51 47,-130 23,-74 -12,-15 21,-59 51,-68 -19,-9 79,-52 -83,-380 -288,-770 -545,-1038 -84,-88 -183,-144 -274,-256 309,-337 1773,-904 2168,452 43,149 72,321 103,478l93 401c19,40 27,44 32,51 116,3 35,0 72,11 8,2 63,25 70,27 -41,-154 -105,-327 -147,-507 -110,-478 -162,-945 -631,-1274 -820,-575 -1829,263 -1894,267l-574 -259c-591,-201 -1224,-218 -1854,-160 -143,13 -244,-3 -225,150 95,30 875,-81 1386,-6 390,57 870,175 1132,369 -38,80 -307,267 -481,578 -108,195 -270,574 -247,837z"/>
   <path fill="#AA8518" d="M10288 4460l-5 49c2,267 3,-16 48,147 374,-225 546,-355 769,485 107,406 250,855 749,815 648,-52 998,-1003 1225,-1530 60,-140 73,-178 -62,-237 -131,159 -419,1142 -825,1416 -857,576 -443,-1458 -1422,-1422 -205,8 -426,158 -477,278z"/>
   <path fill="#C7A629" d="M8796 5258c59,88 9,-42 8,79l3 33c161,-65 78,-82 159,-19 237,-100 453,-343 598,-504 -26,241 -63,482 -76,735 -13,246 72,530 325,472 88,-89 164,-601 215,-759 104,-321 271,-538 305,-639 -45,-164 -46,120 -48,-147l5 -49c-102,76 -188,259 -260,361 14,-243 304,-1037 -226,-1012 -69,126 -110,328 -141,488 -45,235 -91,255 -212,396 -450,529 -324,287 -656,565z"/>
   <path fill="#E4D698" d="M7244 4887c127,148 19,115 308,390 162,154 295,148 459,253 -167,92 -388,246 -593,39 -155,-156 -197,-413 -174,-683zm-743 557c45,34 13,9 75,13 1,0 8,-2 11,0 5,34 -48,89 -2,142l233 -389 84 214c28,64 68,133 105,185 421,578 1112,105 1199,-42l-56 1c-40,18 -102,105 -188,103 1,-4 2,-14 3,-11l111 -154c-31,-53 -19,-27 -45,-51 -9,-9 -24,-10 -61,-46 118,-22 44,31 110,-43 -329,-97 -488,-186 -636,-429 -72,-118 -151,-249 -91,-406 112,-292 57,-213 -25,-428 113,-90 91,-98 260,-160 -59,-71 13,-18 -75,-47 -14,-4 -69,-7 -82,-9 46,-12 51,-4 93,-27 47,-26 19,10 36,-32 33,-82 74,63 -8,-49 -246,30 -282,165 -402,255 -152,115 -144,130 -257,432 -80,214 -52,343 -156,532 -80,144 -165,301 -237,445z"/>
   <path fill="#E4D698" d="M5967 2267c34,40 64,-27 141,-44 80,119 25,55 42,183l28 188c0,4 1,12 1,16 0,0 15,53 -7,135 -12,45 -28,57 -33,103 -10,91 -29,45 24,98 91,-268 341,-691 492,-915 105,-156 207,-269 309,-405 76,-101 288,-283 314,-366 -44,-33 -175,176 -335,126 -2,-6 -3,-15 -3,-18 -1,-100 7,-38 36,-123 -61,-104 15,-56 -99,-74l144 -147c120,-171 224,-74 121,-136 -76,13 -25,-6 -102,47 -408,282 -871,914 -1074,1333z"/>
   <path fill="#C49934" d="M3038 34l184 88c0,2 -2,10 -3,11 0,1 -4,7 -4,8 0,1 -5,3 -6,4 0,0 -6,2 -6,1 0,-2 -5,1 -6,-1l140 96c-323,82 -317,56 -640,175 -155,57 -108,63 -205,104 -54,23 -39,23 -95,22 -5,5 -13,5 -16,14 -1,2 -30,27 -30,27 -51,47 -6,-20 -49,47 642,-311 1225,-493 1996,-194 578,224 154,366 451,374 186,-311 -170,-598 -539,-713 -357,-111 -790,-119 -1171,-63z"/>
   <path fill="#CAB448" d="M7601 659c-59,100 -206,136 -297,189 46,44 66,47 101,106 -58,80 -70,46 -76,155 204,-26 217,-214 263,-75 361,-139 738,-339 725,291 -4,174 -49,366 -110,512 -71,168 -163,293 -218,421l52 91c75,-51 52,-14 92,-122l38 23c195,-158 341,-770 289,-1105 -62,-396 -424,-600 -857,-486z"/>
   <path fill="#D7C877" d="M7589 3942c398,-81 566,133 656,454 144,512 21,660 -84,961l-80 7c-66,73 8,21 -110,43 37,36 52,38 61,46 27,25 15,-2 45,51l-111 154c-1,-3 -1,8 -3,11 86,2 148,-85 188,-103l56 -1c133,-38 282,-21 435,-66 123,-36 222,-79 323,-148 -81,-64 2,-47 -159,19l-3 -33c1,-121 51,9 -8,-79 -178,57 -224,92 -445,121 126,-424 171,-679 7,-1118 -147,-393 -527,-597 -804,-482 82,113 41,-33 8,49 -17,42 11,6 -36,32 -42,23 -47,15 -93,27 13,2 68,4 82,9 88,29 15,-24 75,47z"/>
   <path fill="#D8C668" d="M5967 2267c-89,112 -260,515 -319,685 33,43 16,84 88,-44 25,-45 45,-94 47,-139 62,111 -24,148 60,183 127,52 -101,-37 40,-14 7,131 -29,128 -11,209 8,38 20,48 38,71 21,26 60,28 28,93 -40,82 -61,58 -61,154 -1,123 -28,62 40,82 33,-54 50,-151 69,-173 63,-74 -13,-10 194,-55l44 -13 -20 -50c6,-3 15,-8 22,-14 -53,-43 -50,-65 -136,-39l152 -49 -132 9c-27,-70 27,-151 56,-217 -53,-53 -34,-7 -24,-98 5,-46 20,-58 33,-103 22,-81 7,-135 7,-135 0,-4 -1,-12 -1,-16l-28 -188c-17,-128 38,-64 -42,-183 -77,17 -107,84 -141,44z"/>
   <path fill="#D8C988" d="M12019 2805c-47,244 -490,371 -805,379 -387,10 -715,-61 -734,-439l-43 -144 -86 84c39,281 70,429 285,537 192,97 459,114 691,93 880,-83 791,-504 840,-751 -97,43 -28,-16 -79,52 -33,44 1,-14 -21,59 -24,78 26,38 -47,130z"/>
   <path fill="#A57826" d="M13835 3961c-4,3 -12,6 -14,7l-70 34c-4,2 -21,13 -28,18 164,209 668,376 985,398 406,28 806,-155 857,-542l-125 -125c21,389 -317,539 -708,524 -455,-17 -572,-189 -898,-314z"/>
   <path fill="#D7CB97" d="M13886 2691c-6,-2 -62,-25 -70,-27 -37,-11 44,-8 -72,-11l110 310c-222,101 -714,161 -956,228 9,15 -10,62 133,43 23,-3 109,-39 136,-47l-100 65c-6,4 -15,11 -22,17l103 -21c243,25 562,-115 795,-153l109 201c71,-19 50,15 85,-21l-40 -95 -48 -133c137,-97 207,-125 318,-233 65,-63 246,-224 180,-343 -148,39 -246,381 -586,444l-76 -221z"/>
   <path fill="#AA8518" d="M2086 347c40,25 156,-36 229,-59 23,86 -14,20 42,70 0,5 -5,7 -5,14 -10,93 -47,-16 -38,101 4,3 10,3 12,10l73 60c56,1 41,0 95,-22 98,-41 50,-46 205,-104 323,-119 317,-93 640,-175l-140 -96c1,2 6,-1 6,1 0,2 6,0 6,-1 0,0 5,-3 6,-4 0,-1 4,-6 4,-8 1,-1 2,-10 3,-11l-184 -88c-246,29 -822,177 -952,313z"/>
   <path fill="#BAA547" d="M14053 3294c130,206 357,462 564,581 527,303 596,-114 759,-202l65 77 125 125c-5,-181 -3,-253 -144,-331 -276,-80 -306,764 -1043,-40 -109,-119 -173,-250 -280,-327l40 95c-36,36 -14,2 -85,21z"/>
   <path fill="#DCD398" d="M6240 3154l-152 49c86,-26 83,-4 136,39 -7,6 -16,11 -22,14l20 50c301,74 940,-174 1165,-311 -62,-75 -57,4 -78,-71 -2,-9 -11,-7 -15,-12 57,-30 108,-64 189,-79 -51,-66 69,-122 -71,-37 -139,25 -358,173 -552,233 -194,60 -407,106 -620,126z"/>
   <path fill="#D7C877" d="M7143 887c103,63 -1,-34 -121,136l-144 147c114,18 38,-30 99,74 -29,85 -37,23 -36,123 0,4 0,13 3,18 160,50 291,-159 335,-126l312 -227c-46,-138 -59,49 -263,75 6,-109 18,-74 76,-155 -35,-59 -55,-62 -101,-106 92,-53 238,-89 297,-189 -164,36 -380,109 -458,229z"/>
   <path fill="#D7C877" d="M7987 2258c-90,65 -163,188 -272,278 -49,40 -104,91 -158,130 -74,52 -90,39 -144,129 141,-84 20,-29 71,37 -81,15 -132,50 -189,79 5,5 13,4 15,12 21,75 17,-4 78,71 282,-162 661,-461 781,-745l-38 -23c-39,108 -17,70 -92,122l-52 -91z"/>
   <path fill="#966A28" d="M12343 3917c-79,-51 -7,25 -53,-44 -19,-29 -18,-19 -22,-83 -16,24 -10,3 -34,60 -8,18 -17,46 -22,65 -56,207 -47,607 -39,824 5,142 -6,204 99,260 27,-45 16,-854 71,-1082z"/>
   <path fill="#C9B658" d="M12899 3190c-295,100 -556,308 -631,600 4,64 2,54 22,83 46,69 -25,-7 53,44 24,-278 391,-575 661,-591l124 -66c4,-10 14,-7 20,-13l-103 21c7,-6 16,-12 22,-17l100 -65c-27,8 -113,44 -136,47 -143,19 -124,-28 -133,-43z"/>
   <path fill="#BAA547" d="M13138 3441c45,46 78,109 115,157 47,60 84,103 136,156 66,70 239,221 334,266 7,-6 24,-16 28,-18l70 -34c2,-1 10,-4 14,-7 -139,-101 -252,-183 -372,-309 -274,-290 -148,-335 -326,-349l1 137z"/>
  </g>
 </g>
</svg>
